<svg xmlns="http://www.w3.org/2000/svg" width="35.911" height="36" viewBox="0 0 35.911 36">
  <path id="Icon_simple-pinterest" data-name="Icon simple-pinterest" d="M18.025,0A17.98,17.98,0,0,0,11.47,34.723a17.286,17.286,0,0,1,.061-5.159c.328-1.406,2.109-8.936,2.109-8.936a6.506,6.506,0,0,1-.538-2.671c0-2.495,1.45-4.366,3.252-4.366a2.26,2.26,0,0,1,2.277,2.532c0,1.544-.979,3.851-1.488,5.988a2.609,2.609,0,0,0,2.663,3.247c3.192,0,5.652-3.368,5.652-8.231,0-4.292-3.094-7.3-7.512-7.3a7.781,7.781,0,0,0-8.113,7.8,7,7,0,0,0,1.333,4.111.549.549,0,0,1,.127.517c-.135.563-.439,1.8-.5,2.045-.08.337-.258.406-.6.247-2.243-1.035-3.649-4.317-3.649-6.969,0-5.664,4.122-10.878,11.88-10.878,6.237,0,11.088,4.451,11.088,10.385,0,6.2-3.91,11.193-9.349,11.193a4.856,4.856,0,0,1-4.137-2.069L14.9,30.478A19.589,19.589,0,0,1,12.652,35.2,17.982,17.982,0,1,0,17.978.039Z" transform="translate(-0.043)" fill="#272522"/>
</svg>
