<?xml version="1.0" encoding="UTF-8"?><svg xmlns="http://www.w3.org/2000/svg" viewBox="0 0 187.4 87.33"><defs><style>.d{font-family:Trirong-Regular, Trirong;font-size:18.16px;}.e{letter-spacing:-.04em;}.f{letter-spacing:-.03em;}.g{fill:#b26e3e;}.h{letter-spacing:0em;}.i{fill:none;stroke:#b26e3e;stroke-linecap:round;stroke-linejoin:round;stroke-width:1.79px;}</style></defs><g id="a"/><g id="b"><g id="c"><g><g><g><path d="M.89,39.82h3.18l4.26,12.15-.47-.19,3.3-8.43,1.27,3.72-4.69,10.58L.89,39.82Zm8.36,0h2.73l4.71,11.89-.54-.09,3.91-11.8h2.94l-6.71,17.81-7.04-17.81Z"/><path d="M26.21,48.33c0-1.18,.23-2.3,.68-3.36,.46-1.06,1.08-2,1.88-2.81s1.73-1.46,2.78-1.92c1.05-.46,2.19-.69,3.42-.69s2.32,.23,3.38,.69c1.06,.46,2,1.1,2.81,1.92s1.45,1.75,1.91,2.81c.46,1.06,.68,2.18,.68,3.36s-.23,2.34-.68,3.39c-.46,1.05-1.1,1.98-1.92,2.79-.82,.81-1.76,1.44-2.81,1.88-1.05,.45-2.18,.67-3.39,.67s-2.34-.22-3.39-.67c-1.05-.45-1.98-1.07-2.78-1.86s-1.43-1.72-1.88-2.78c-.46-1.06-.68-2.2-.68-3.43Zm2.83-.02c0,.86,.15,1.66,.46,2.4,.31,.74,.73,1.39,1.28,1.94,.55,.56,1.19,.99,1.92,1.31,.73,.31,1.51,.47,2.34,.47s1.6-.16,2.32-.47,1.33-.75,1.86-1.31c.53-.56,.94-1.21,1.25-1.94,.31-.74,.46-1.53,.46-2.38s-.16-1.66-.47-2.4c-.31-.74-.74-1.39-1.27-1.96-.53-.56-1.16-1-1.88-1.32-.72-.31-1.5-.47-2.33-.47s-1.61,.16-2.33,.48c-.72,.32-1.35,.76-1.9,1.32-.54,.56-.96,1.21-1.26,1.96-.3,.75-.45,1.53-.45,2.37Z"/><path d="M48.71,48.33c0-1.18,.23-2.3,.68-3.36,.46-1.06,1.08-2,1.88-2.81s1.73-1.46,2.78-1.92c1.05-.46,2.19-.69,3.42-.69s2.32,.23,3.38,.69c1.06,.46,2,1.1,2.81,1.92s1.45,1.75,1.91,2.81c.46,1.06,.68,2.18,.68,3.36s-.23,2.34-.68,3.39c-.46,1.05-1.1,1.98-1.92,2.79-.82,.81-1.76,1.44-2.81,1.88-1.05,.45-2.18,.67-3.39,.67s-2.34-.22-3.39-.67c-1.05-.45-1.98-1.07-2.78-1.86s-1.43-1.72-1.88-2.78c-.46-1.06-.68-2.2-.68-3.43Zm2.83-.02c0,.86,.15,1.66,.46,2.4,.31,.74,.73,1.39,1.28,1.94,.55,.56,1.19,.99,1.92,1.31,.73,.31,1.51,.47,2.34,.47s1.6-.16,2.32-.47,1.33-.75,1.86-1.31c.53-.56,.94-1.21,1.25-1.94,.31-.74,.46-1.53,.46-2.38s-.16-1.66-.47-2.4c-.31-.74-.74-1.39-1.27-1.96-.53-.56-1.16-1-1.88-1.32-.72-.31-1.5-.47-2.33-.47s-1.61,.16-2.33,.48c-.72,.32-1.35,.76-1.9,1.32-.54,.56-.96,1.21-1.26,1.96-.3,.75-.45,1.53-.45,2.37Z"/><path d="M72.26,56.88v-17.15h4.88c1.7,0,3.14,.26,4.35,.78,1.2,.52,2.17,1.2,2.9,2.05,.73,.85,1.27,1.79,1.61,2.84,.35,1.04,.52,2.09,.52,3.14,0,1.29-.23,2.44-.68,3.46-.46,1.02-1.08,1.9-1.86,2.63-.79,.73-1.7,1.29-2.73,1.67-1.04,.39-2.12,.58-3.25,.58h-5.72Zm2.76-2.64h2.43c.93,0,1.77-.13,2.53-.39,.76-.26,1.42-.64,1.97-1.13,.55-.49,.98-1.11,1.28-1.84,.31-.73,.46-1.57,.46-2.53,0-1.07-.18-1.98-.53-2.74s-.82-1.38-1.39-1.86-1.2-.83-1.87-1.05c-.68-.22-1.34-.33-2-.33h-2.87v11.87Z"/><path d="M106.48,39.73v17.15h-2.75v-7.28h-8.43v7.28h-2.76v-17.15h2.76v7.23h8.43v-7.23h2.75Z"/><path d="M112.48,48.33c0-1.18,.23-2.3,.68-3.36,.46-1.06,1.08-2,1.88-2.81s1.73-1.46,2.78-1.92c1.05-.46,2.19-.69,3.42-.69s2.32,.23,3.38,.69c1.06,.46,2,1.1,2.81,1.92s1.45,1.75,1.91,2.81c.46,1.06,.68,2.18,.68,3.36s-.23,2.34-.68,3.39c-.46,1.05-1.1,1.98-1.92,2.79-.82,.81-1.76,1.44-2.81,1.88-1.05,.45-2.18,.67-3.39,.67s-2.34-.22-3.39-.67c-1.05-.45-1.98-1.07-2.78-1.86s-1.43-1.72-1.88-2.78c-.46-1.06-.68-2.2-.68-3.43Zm2.83-.02c0,.86,.15,1.66,.46,2.4,.31,.74,.73,1.39,1.28,1.94,.55,.56,1.19,.99,1.92,1.31,.73,.31,1.51,.47,2.34,.47s1.6-.16,2.32-.47,1.33-.75,1.86-1.31c.53-.56,.94-1.21,1.25-1.94,.31-.74,.46-1.53,.46-2.38s-.16-1.66-.47-2.4c-.31-.74-.74-1.39-1.27-1.96-.53-.56-1.16-1-1.88-1.32-.72-.31-1.5-.47-2.33-.47s-1.61,.16-2.33,.48c-.72,.32-1.35,.76-1.9,1.32-.54,.56-.96,1.21-1.26,1.96-.3,.75-.45,1.53-.45,2.37Z"/><path d="M138.51,50.7c0,.68,.18,1.29,.53,1.85,.35,.56,.82,1.01,1.4,1.35,.58,.35,1.23,.52,1.95,.52s1.43-.17,2.03-.52c.6-.35,1.07-.8,1.42-1.35,.35-.56,.53-1.17,.53-1.85v-10.98h2.69v11.02c0,1.26-.3,2.36-.9,3.31-.6,.95-1.4,1.69-2.41,2.21-1.01,.53-2.13,.79-3.36,.79s-2.34-.26-3.34-.79c-1-.53-1.81-1.26-2.4-2.21-.6-.95-.9-2.05-.9-3.31v-11.02h2.76v10.98Z"/><path d="M164.84,43.24c-.61-.33-1.26-.61-1.96-.84-.69-.23-1.35-.34-1.98-.34-.85,0-1.52,.19-2,.57-.49,.38-.73,.9-.73,1.55,0,.47,.17,.88,.51,1.24,.34,.35,.77,.66,1.31,.92,.53,.26,1.1,.51,1.7,.74,.52,.19,1.03,.41,1.53,.67,.5,.26,.96,.57,1.38,.94,.42,.37,.75,.84,.99,1.41,.24,.57,.37,1.26,.37,2.06,0,.91-.22,1.73-.67,2.46-.45,.73-1.1,1.32-1.97,1.77-.86,.45-1.89,.67-3.08,.67-.72,0-1.42-.08-2.11-.24-.68-.16-1.33-.37-1.94-.64-.61-.27-1.18-.59-1.7-.97l1.22-2.12c.38,.28,.81,.54,1.3,.78,.49,.24,.98,.42,1.5,.57,.51,.14,1,.21,1.47,.21s.95-.08,1.45-.25c.49-.16,.9-.43,1.21-.79,.31-.36,.47-.85,.47-1.46,0-.49-.14-.9-.42-1.24-.28-.34-.65-.64-1.1-.9-.45-.26-.94-.49-1.47-.69-.52-.2-1.06-.43-1.62-.68-.57-.25-1.09-.56-1.57-.93-.48-.37-.86-.82-1.14-1.35-.28-.53-.42-1.19-.42-1.95,0-.94,.21-1.76,.64-2.46,.42-.7,1.03-1.25,1.83-1.66,.79-.41,1.69-.63,2.7-.66,1.21,0,2.24,.15,3.1,.44,.86,.29,1.62,.65,2.3,1.07l-1.06,2.1Z"/><path d="M171.91,39.73h11.38v2.64h-8.62v4.57h7.68v2.64h-7.68v4.66h8.95v2.64h-11.71v-17.15Z"/></g><text class="d" transform="translate(60.12 78.48)"><tspan x="0" y="0">c</tspan><tspan class="e" x="9" y="0">r</tspan><tspan x="15.83" y="0">eati</tspan><tspan class="f" x="47.75" y="0">v</tspan><tspan class="h" x="57.46" y="0">e</tspan></text></g><g><g><line class="i" x1="60.94" y1="21.37" x2="91.88" y2="2.04"/><line class="i" x1="78.35" y1="10.49" x2="93.7" y2=".9"/><line class="i" x1="75.97" y1="28.09" x2="75.97" y2="12.16"/></g><g><line class="i" x1="126.46" y1="21.37" x2="95.52" y2="2.04"/><line class="i" x1="109.06" y1="10.49" x2="93.7" y2=".9"/><line class="i" x1="111.44" y1="28.09" x2="111.44" y2="12.16"/></g></g><path class="g" d="M99.97,28.6h-12.55c0-3.46,2.81-6.27,6.27-6.27s6.27,2.81,6.27,6.27Z"/></g></g></g></svg>