<svg xmlns="http://www.w3.org/2000/svg" width="402" height="402" viewBox="0 0 402 402">
  <g id="Group_30" data-name="Group 30" transform="translate(-1241 -1168)">
    <rect id="Getaway-9858" width="402" height="402" transform="translate(1241 1168)" fill="#faf7eb"/>
    <g id="Group_29" data-name="Group 29" transform="translate(186 -338.05)">
      <path id="Path_10" data-name="Path 10" d="M1432.948-27.158H1513.3V-66.275L1472.623-91.31l-39.675,25.035Z" transform="translate(-327.569 1722.699)" fill="#b7990c"/>
      <path id="Path_11" data-name="Path 11" d="M1432.948-27.158H1513.3V-66.275L1472.623-91.31l-39.675,25.035Z" transform="translate(-215.94 1722.699)" fill="#f88054"/>
      <path id="Path_12" data-name="Path 12" d="M1432.948-27.158H1513.3V-66.275L1472.623-91.31l-39.675,25.035Z" transform="translate(-104.31 1722.699)" fill="#f1f5cb"/>
      <path id="Path_13" data-name="Path 13" d="M1432.948-27.158H1513.3V-66.275L1472.623-91.31l-39.675,25.035Z" transform="translate(-272.03 1820.504)" fill="#91a9b7"/>
      <path id="Path_15" data-name="Path 15" d="M1432.948-27.158H1513.3V-66.275L1472.623-91.31l-39.675,25.035Z" transform="translate(-158.076 1820.504)" fill="#47494c"/>
      <text id="Curry" transform="translate(1142.73 1710.078)" fill="#272522" font-size="8" font-family="Trirong-MediumItalic, Trirong" font-weight="500" font-style="italic"><tspan x="-10.616" y="0">Curry</tspan></text>
      <text id="Lulu" transform="translate(1254.92 1710.078)" fill="#272522" font-size="8" font-family="Trirong-MediumItalic, Trirong" font-weight="500" font-style="italic"><tspan x="-8.632" y="0">Lulu</tspan></text>
      <text id="Gelato" transform="translate(1365.453 1710.078)" fill="#272522" font-size="8" font-family="Trirong-MediumItalic, Trirong" font-weight="500" font-style="italic"><tspan x="-12.016" y="0">Gelato</tspan></text>
      <text id="Pewter" transform="translate(1197.708 1807.882)" fill="#272522" font-size="8" font-family="Trirong-MediumItalic, Trirong" font-weight="500" font-style="italic"><tspan x="-12.928" y="0">Pewter</tspan></text>
      <text id="Lighthouse" transform="translate(1308.909 1807.882)" fill="#272522" font-size="8" font-family="Trirong-MediumItalic, Trirong" font-weight="500" font-style="italic"><tspan x="-21.172" y="0">Lighthouse</tspan></text>
    </g>
  </g>
</svg>
